<?xml version="1.0" encoding="UTF-8"?>
<svg version="1.1" xmlns="http://www.w3.org/2000/svg" width="341" height="426">
<path d="M0 0 C48.51 0 97.02 0 147 0 C147 5.28 147 10.56 147 16 C157.56 16 168.12 16 179 16 C179 21.28 179 26.56 179 32 C189.23 32 199.46 32 210 32 C210 37.28 210 42.56 210 48 C215.28 48 220.56 48 226 48 C225.67 58.23 225.34 68.46 225 79 C230.28 79 235.56 79 241 79 C241 94.84 241 110.68 241 127 C235.39 127 229.78 127 224 127 C224 121.72 224 116.44 224 111 C218.72 111 213.44 111 208 111 C208 106.05 208 101.1 208 96 C205.834375 96.0309375 205.834375 96.0309375 203.625 96.0625 C195.40939515 95.98499429 187.20332074 95.45574004 179 95 C179 118.43 179 141.86 179 166 C174.05 166 169.1 166 164 166 C164 193.06 164 220.12 164 248 C168.95 248 173.9 248 179 248 C179 258.23 179 268.46 179 279 C183.95 279 188.9 279 194 279 C194.33 294.18 194.66 309.36 195 325 C199.95 325 204.9 325 210 325 C210 356.35 210 387.7 210 420 C120.24 420 30.48 420 -62 420 C-62 388.65 -62 357.3 -62 325 C-57.05 325 -52.1 325 -47 325 C-47.01160156 322.92976563 -47.02320313 320.85953125 -47.03515625 318.7265625 C-47.0421086 316.72428507 -47.0490259 314.72200735 -47.05493164 312.71972656 C-47.0599643 311.32681523 -47.06679098 309.9339092 -47.07543945 308.54101562 C-47.08755152 306.54038754 -47.09270412 304.53972112 -47.09765625 302.5390625 C-47.10289307 301.33459473 -47.10812988 300.13012695 -47.11352539 298.88916016 C-47 296 -47 296 -46 294 C-41.05 294 -36.1 294 -31 294 C-31 283.44 -31 272.88 -31 262 C-26.05 262 -21.1 262 -16 262 C-16 235.93 -16 209.86 -16 183 C-20.95 183 -25.9 183 -31 183 C-31 171.78 -31 160.56 -31 149 C-35.95 149 -40.9 149 -46 149 C-46 131.18 -46 113.36 -46 95 C-50.95 95 -55.9 95 -61 95 C-61 100.28 -61 105.56 -61 111 C-71.56 111 -82.12 111 -93 111 C-93 95.16 -93 79.32 -93 63 C-88.05 63 -83.1 63 -78 63 C-78 58.05 -78 53.1 -78 48 C-72.72 48 -67.44 48 -62 48 C-62 42.72 -62 37.44 -62 32 C-57.05 32 -52.1 32 -47 32 C-47 26.72 -47 21.44 -47 16 C-31.49 16 -15.98 16 0 16 C0 10.72 0 5.44 0 0 Z " fill="#EDDDC6" transform="translate(97,3)"/>
<path d="M0 0 C48.51 0 97.02 0 147 0 C147 5.28 147 10.56 147 16 C157.56 16 168.12 16 179 16 C179 21.28 179 26.56 179 32 C189.23 32 199.46 32 210 32 C210 37.28 210 42.56 210 48 C215.28 48 220.56 48 226 48 C225.67 58.23 225.34 68.46 225 79 C230.28 79 235.56 79 241 79 C241 94.84 241 110.68 241 127 C235.39 127 229.78 127 224 127 C224 121.72 224 116.44 224 111 C218.72 111 213.44 111 208 111 C208 106.05 208 101.1 208 96 C206.576875 96.020625 205.15375 96.04125 203.6875 96.0625 C195.11264926 96.07375308 186.55732362 95.4965908 178 95 C178 98.96 178 102.92 178 107 C173.05 107 168.1 107 163 107 C163 111.95 163 116.9 163 122 C141.55 122 120.1 122 98 122 C98 117.05 98 112.1 98 107 C93.38 107 88.76 107 84 107 C84 98.09 84 89.18 84 80 C76.41 80 68.82 80 61 80 C61 85.28 61 90.56 61 96 C57.37 96 53.74 96 50 96 C50 99.96 50 103.92 50 108 C46.04 108 42.08 108 38 108 C38 112.62 38 117.24 38 122 C16.22 122 -5.56 122 -28 122 C-28 117.38 -28 112.76 -28 108 C-31.63 108 -35.26 108 -39 108 C-39 103.71 -39 99.42 -39 95 C-46.26 95 -53.52 95 -61 95 C-61 100.28 -61 105.56 -61 111 C-71.56 111 -82.12 111 -93 111 C-93 95.16 -93 79.32 -93 63 C-88.05 63 -83.1 63 -78 63 C-78 58.05 -78 53.1 -78 48 C-72.72 48 -67.44 48 -62 48 C-62 42.72 -62 37.44 -62 32 C-57.05 32 -52.1 32 -47 32 C-47 26.72 -47 21.44 -47 16 C-31.49 16 -15.98 16 0 16 C0 10.72 0 5.44 0 0 Z " fill="#0C0B0A" transform="translate(97,3)"/>
<path d="M0 0 C4.95 0 9.9 0 15 0 C15.33 15.18 15.66 30.36 16 46 C20.95 46 25.9 46 31 46 C31 77.35 31 108.7 31 141 C-58.76 141 -148.52 141 -241 141 C-241 109.65 -241 78.3 -241 46 C-236.05 46 -231.1 46 -226 46 C-225.93941406 44.5046875 -225.87882812 43.009375 -225.81640625 41.46875 C-225.7319425 39.47915937 -225.64729747 37.48957643 -225.5625 35.5 C-225.52318359 34.51773438 -225.48386719 33.53546875 -225.44335938 32.5234375 C-225.20239383 26.9626941 -224.78078831 21.51144691 -224 16 C-213.95847275 15.20237514 -204.07247455 14.90407167 -194 15 C-194 20.28 -194 25.56 -194 31 C-188.72 31 -183.44 31 -178 31 C-178 35.95 -178 40.9 -178 46 C-157.87 46 -137.74 46 -117 46 C-117 41.05 -117 36.1 -117 31 C-112.05 31 -107.1 31 -102 31 C-102 35.95 -102 40.9 -102 46 C-78.9 46 -55.8 46 -32 46 C-32 41.05 -32 36.1 -32 31 C-26.72 31 -21.44 31 -16 31 C-16 25.72 -16 20.44 -16 15 C-10.72 15 -5.44 15 0 15 C0 10.05 0 5.1 0 0 Z " fill="#EDDEC6" transform="translate(276,282)"/>
<path d="M0 0 C48.51 0 97.02 0 147 0 C147 5.28 147 10.56 147 16 C157.56 16 168.12 16 179 16 C179 21.28 179 26.56 179 32 C189.23 32 199.46 32 210 32 C210 37.28 210 42.56 210 48 C209.67 48 209.34 48 209 48 C209 43.05 209 38.1 209 33 C198.77 33 188.54 33 178 33 C178 27.72 178 22.44 178 17 C167.77 17 157.54 17 147 17 C147 21.95 147 26.9 147 32 C151.89153471 31.9604321 151.89153471 31.9604321 156.78295898 31.90991211 C158.52221717 31.90275087 160.26145304 31.94975298 162 32 C163 33 163 33 163.09765625 36.37890625 C163.09191424 37.77347492 163.07890228 39.16801597 163.0625 40.5625 C163.041875 43.016875 163.02125 45.47125 163 48 C168.28 48 173.56 48 179 48 C179 53.28 179 58.56 179 64 C110.03 64 41.06 64 -30 64 C-30 58.72 -30 53.44 -30 48 C-25.05 48 -20.1 48 -15 48 C-15 37.77 -15 27.54 -15 17 C-25.23 17 -35.46 17 -46 17 C-46 21.95 -46 26.9 -46 32 C-46.33 32 -46.66 32 -47 32 C-47 26.72 -47 21.44 -47 16 C-31.49 16 -15.98 16 0 16 C0 10.72 0 5.44 0 0 Z " fill="#ECDDC5" transform="translate(97,3)"/>
<path d="M0 0 C5.28 0 10.56 0 16 0 C16 14.85 16 29.7 16 45 C10.72 45 5.44 45 0 45 C0 50.28 0 55.56 0 61 C-5.28 61 -10.56 61 -16 61 C-16 65.95 -16 70.9 -16 76 C-39.1 76 -62.2 76 -86 76 C-86 71.05 -86 66.1 -86 61 C-90.95 61 -95.9 61 -101 61 C-101 65.95 -101 70.9 -101 76 C-121.13 76 -141.26 76 -162 76 C-162 71.05 -162 66.1 -162 61 C-167.28 61 -172.56 61 -178 61 C-178 55.72 -178 50.44 -178 45 C-182.95 45 -187.9 45 -193 45 C-193 34.77 -193 24.54 -193 14 C-182.77 14 -172.54 14 -162 14 C-162 19.28 -162 24.56 -162 30 C-157.05 30 -152.1 30 -147 30 C-147 35.28 -147 40.56 -147 46 C-109.05 46 -71.1 46 -32 46 C-32 40.72 -32 35.44 -32 30 C-26.72 30 -21.44 30 -16 30 C-16 24.72 -16 19.44 -16 14 C-10.72 14 -5.44 14 0 14 C0 9.38 0 4.76 0 0 Z " fill="#191918" transform="translate(260,252)"/>
<path d="M0 0 C18.15 0 36.3 0 55 0 C55 3.96 55 7.92 55 12 C59.62 12 64.24 12 69 12 C69 19.92 69 27.84 69 36 C64.38 36 59.76 36 55 36 C55 40.95 55 45.9 55 51 C50.05 51 45.1 51 40 51 C40 55.95 40 60.9 40 66 C44.95 66 49.9 66 55 66 C55 70.95 55 75.9 55 81 C64.57 81 74.14 81 84 81 C84 85.95 84 90.9 84 96 C69.81 96 55.62 96 41 96 C41 91.05 41 86.1 41 81 C32.09 81 23.18 81 14 81 C14 85.95 14 90.9 14 96 C-0.52 96 -15.04 96 -30 96 C-30 91.05 -30 86.1 -30 81 C-20.1 81 -10.2 81 0 81 C0 76.05 0 71.1 0 66 C4.62 66 9.24 66 14 66 C14 61.05 14 56.1 14 51 C9.05 51 4.1 51 -1 51 C-1 46.05 -1 41.1 -1 36 C-5.62 36 -10.24 36 -15 36 C-15 28.08 -15 20.16 -15 12 C-10.05 12 -5.1 12 0 12 C0 8.04 0 4.08 0 0 Z " fill="#191817" transform="translate(128,139)"/>
<path d="M0 0 C10.23 0 20.46 0 31 0 C31 5.28 31 10.56 31 16 C41.23 16 51.46 16 62 16 C62 20.95 62 25.9 62 31 C67.61 31 73.22 31 79 31 C78.67 41.23 78.34 51.46 78 62 C83.28 62 88.56 62 94 62 C94 77.84 94 93.68 94 110 C88.39 110 82.78 110 77 110 C77 104.72 77 99.44 77 94 C71.72 94 66.44 94 61 94 C61 89.05 61 84.1 61 79 C57.37 79 53.74 79 50 79 C50 78.67 50 78.34 50 78 C53.96 78 57.92 78 62 78 C61.67 73.38 61.34 68.76 61 64 C56.05 63.67 51.1 63.34 46 63 C45.875 51.5 45.875 51.5 47 47 C42.38 47 37.76 47 33 47 C33 42 33 37 33 32 C27.39 31.67 21.78 31.34 16 31 C15.67 26.05 15.34 21.1 15 16 C10.05 15.67 5.1 15.34 0 15 C0 10.05 0 5.1 0 0 Z " fill="#1E1E1E" transform="translate(244,20)"/>
<path d="M0 0 C8.91 0 17.82 0 27 0 C27 4.95 27 9.9 27 15 C46.47 15 65.94 15 86 15 C86 20.28 86 25.56 86 31 C80.72 31 75.44 31 70 31 C70 36.28 70 41.56 70 47 C42.28 47 14.56 47 -14 47 C-14 42.05 -14 37.1 -14 32 C-18.95 32 -23.9 32 -29 32 C-29 26.72 -29 21.44 -29 16 C-33.95 16 -38.9 16 -44 16 C-44 15.67 -44 15.34 -44 15 C-29.48 15 -14.96 15 0 15 C0 10.05 0 5.1 0 0 Z " fill="#D3B394" transform="translate(142,220)"/>
<path d="M0 0 C10.23 0 20.46 0 31 0 C31 10.23 31 20.46 31 31 C26.05 31 21.1 31 16 31 C16 36.28 16 41.56 16 47 C5.44 47 -5.12 47 -16 47 C-15.67394714 56.48155191 -15.67394714 56.48155191 -15.34179688 65.96289062 C-15.30119141 67.18169922 -15.26058594 68.40050781 -15.21875 69.65625 C-15.17685547 70.87119141 -15.13496094 72.08613281 -15.09179688 73.33789062 C-14.95620959 80.22399366 -15 87.11256224 -15 94 C-25.56 94 -36.12 94 -47 94 C-47 78.16 -47 62.32 -47 46 C-42.05 46 -37.1 46 -32 46 C-32 41.05 -32 36.1 -32 31 C-26.72 31 -21.44 31 -16 31 C-16 25.72 -16 20.44 -16 15 C-10.72 15 -5.44 15 0 15 C0 10.05 0 5.1 0 0 Z " fill="#1D1D1D" transform="translate(51,20)"/>
<path d="M0 0 C4.95 0 9.9 0 15 0 C15 4.95 15 9.9 15 15 C38.1 15 61.2 15 85 15 C85 15.33 85 15.66 85 16 C62.23 16 39.46 16 16 16 C16 20.95 16 25.9 16 31 C20.95 31 25.9 31 31 31 C31 41.23 31 51.46 31 62 C26.05 62 21.1 62 16 62 C16 66.95 16 71.9 16 77 C10.72 77 5.44 77 0 77 C0 72.05 0 67.1 0 62 C-4.95 62 -9.9 62 -15 62 C-15 51.77 -15 41.54 -15 31 C-10.05 31 -5.1 31 0 31 C0 26.05 0 21.1 0 16 C-20.13 16 -40.26 16 -61 16 C-61 15.67 -61 15.34 -61 15 C-40.87 15 -20.74 15 0 15 C0 10.05 0 5.1 0 0 Z " fill="#868583" transform="translate(159,313)"/>
<path d="M0 0 C18.15 0 36.3 0 55 0 C55 3.96 55 7.92 55 12 C59.62 12 64.24 12 69 12 C69 19.92 69 27.84 69 36 C64.38 36 59.76 36 55 36 C55 30.39 55 24.78 55 19 C36.85 19 18.7 19 0 19 C0 24.61 0 30.22 0 36 C4.62 36 9.24 36 14 36 C14 40.62 14 45.24 14 50 C9.05 50.33 4.1 50.66 -1 51 C-1 46.05 -1 41.1 -1 36 C-5.62 36 -10.24 36 -15 36 C-15 28.08 -15 20.16 -15 12 C-10.05 12 -5.1 12 0 12 C0 8.04 0 4.08 0 0 Z " fill="#1C1B1A" transform="translate(128,139)"/>
<path d="M0 0 C18.15 0 36.3 0 55 0 C55 10.56 55 21.12 55 32 C41.53267706 32.99349104 28.47298927 32.81845262 15 32 C15 36.95 15 41.9 15 47 C14.67 47 14.34 47 14 47 C14 42.05 14 37.1 14 32 C9.38 32 4.76 32 0 32 C0 31.67 0 31.34 0 31 C4.62 31 9.24 31 14 31 C14 26.38 14 21.76 14 17 C9.38 17 4.76 17 0 17 C0 11.39 0 5.78 0 0 Z " fill="#0B0B0B" transform="translate(128,158)"/>
<path d="M0 0 C5.28 0 10.56 0 16 0 C16 16.83 16 33.66 16 51 C10.39 51 4.78 51 -1 51 C-1 55.95 -1 60.9 -1 66 C-5.62 66 -10.24 66 -15 66 C-15.495 48.675 -15.495 48.675 -16 31 C-10.72 31 -5.44 31 0 31 C0 20.77 0 10.54 0 0 Z " fill="#D3B393" transform="translate(244,169)"/>
<path d="M0 0 C4.62 0 9.24 0 14 0 C14 4.29 14 8.58 14 13 C17.96 13 21.92 13 26 13 C26 8.71 26 4.42 26 0 C30.29 0 34.58 0 39 0 C39 4.29 39 8.58 39 13 C42.96 13 46.92 13 51 13 C51 17.62 51 22.24 51 27 C47.04 27 43.08 27 39 27 C39 31.29 39 35.58 39 40 C34.71 40 30.42 40 26 40 C26 35.71 26 31.42 26 27 C21.71 27 17.42 27 13 27 C13 22.71 13 18.42 13 14 C8.71 14 4.42 14 0 14 C0 9.38 0 4.76 0 0 Z " fill="#CFCFCF" transform="translate(195,83)"/>
<path d="M0 0 C4.62 0 9.24 0 14 0 C14 4.29 14 8.58 14 13 C17.96 13 21.92 13 26 13 C26 8.71 26 4.42 26 0 C30.29 0 34.58 0 39 0 C39 4.29 39 8.58 39 13 C42.96 13 46.92 13 51 13 C51 17.62 51 22.24 51 27 C47.04 27 43.08 27 39 27 C39 31.29 39 35.58 39 40 C34.71 40 30.42 40 26 40 C26 35.71 26 31.42 26 27 C22.04 27 18.08 27 14 27 C14 22.71 14 18.42 14 14 C9.38 14 4.76 14 0 14 C0 9.38 0 4.76 0 0 Z " fill="#CECECE" transform="translate(66,83)"/>
<path d="M0 0 C0.33 0 0.66 0 1 0 C1 23.43 1 46.86 1 71 C-4.28 71 -9.56 71 -15 71 C-15 51.53 -15 32.06 -15 12 C-10.05 12 -5.1 12 0 12 C0 8.04 0 4.08 0 0 Z " fill="#D2B192" transform="translate(275,98)"/>
<path d="M0 0 C4.95 0 9.9 0 15 0 C15 15.18 15 30.36 15 46 C10.05 46 5.1 46 0 46 C0 30.82 0 15.64 0 0 Z " fill="#D3B394" transform="translate(67,376)"/>
<path d="M0 0 C5.61 0 11.22 0 17 0 C17 10.56 17 21.12 17 32 C11.39 32 5.78 32 0 32 C0 21.44 0 10.88 0 0 Z " fill="#D3B394" transform="translate(243,390)"/>
<path d="M0 0 C8.91 0 17.82 0 27 0 C27 4.95 27 9.9 27 15 C18.09 15 9.18 15 0 15 C0 10.05 0 5.1 0 0 Z " fill="#BA9879" transform="translate(142,220)"/>
<path d="M0 0 C5.28 0 10.56 0 16 0 C16 5.28 16 10.56 16 16 C10.72 16 5.44 16 0 16 C0 10.72 0 5.44 0 0 Z " fill="#D5B79B" transform="translate(260,51)"/>
<path d="M0 0 C48.51 0 97.02 0 147 0 C147 5.28 147 10.56 147 16 C146.67 16 146.34 16 146 16 C146 11.05 146 6.1 146 1 C143.69 1.66 141.38 2.32 139 3 C136.3735199 3.24723816 136.3735199 3.24723816 133.86499023 3.24291992 C132.90213104 3.24595123 131.93927185 3.24898254 130.94723511 3.25210571 C129.39360764 3.24139542 129.39360764 3.24139542 127.80859375 3.23046875 C126.69888214 3.2304184 125.58917053 3.23036804 124.4458313 3.23031616 C120.77627829 3.22667752 117.10699692 3.20764598 113.4375 3.1875 C110.86515395 3.17992637 108.29280688 3.17268927 105.72045898 3.16577148 C87.00132343 3.09863912 68.28357007 2.8825885 49.56663895 2.5933876 C47.585847 2.56285982 45.60504204 2.53317962 43.62423706 2.50350952 C29.06253868 2.27860906 14.53584948 1.91756776 0 1 C0 0.67 0 0.34 0 0 Z " fill="#F2ECDF" transform="translate(97,3)"/>
<path d="M0 0 C4.29 0 8.58 0 13 0 C13 4.29 13 8.58 13 13 C8.71 13 4.42 13 0 13 C0 8.71 0 4.42 0 0 Z " fill="#D1D1D1" transform="translate(221,110)"/>
<path d="M0 0 C4.29 0 8.58 0 13 0 C13 4.29 13 8.58 13 13 C8.71 13 4.42 13 0 13 C0 8.71 0 4.42 0 0 Z " fill="#D6D6D6" transform="translate(221,83)"/>
<path d="M0 0 C4.29 0 8.58 0 13 0 C13 4.29 13 8.58 13 13 C8.71 13 4.42 13 0 13 C0 8.71 0 4.42 0 0 Z " fill="#D6D6D6" transform="translate(195,83)"/>
<path d="M0 0 C4.29 0 8.58 0 13 0 C13 4.29 13 8.58 13 13 C8.71 13 4.42 13 0 13 C0 8.71 0 4.42 0 0 Z " fill="#D4D4D4" transform="translate(67,83)"/>
<path d="M0 0 C3.96 0 7.92 0 12 0 C12 4.29 12 8.58 12 13 C8.04 13 4.08 13 0 13 C0 8.71 0 4.42 0 0 Z " fill="#D6D6D6" transform="translate(105,97)"/>
<path d="M0 0 C3.96 0 7.92 0 12 0 C12 4.29 12 8.58 12 13 C8.04 13 4.08 13 0 13 C0 8.71 0 4.42 0 0 Z " fill="#D5D5D5" transform="translate(80,97)"/>
<path d="M0 0 C3.96 0 7.92 0 12 0 C12 4.29 12 8.58 12 13 C8.04 13 4.08 13 0 13 C0 8.71 0 4.42 0 0 Z " fill="#D5D5D5" transform="translate(209,97)"/>
<path d="M0 0 C3.96 0 7.92 0 12 0 C12 4.29 12 8.58 12 13 C8.04 13 4.08 13 0 13 C0 8.71 0 4.42 0 0 Z " fill="#080808" transform="translate(93,97)"/>
<path d="M0 0 C3.96 0 7.92 0 12 0 C12 4.29 12 8.58 12 13 C8.04 13 4.08 13 0 13 C0 8.71 0 4.42 0 0 Z " fill="#D0D0D0" transform="translate(93,83)"/>
<path d="M0 0 C3.63 0 7.26 0 11 0 C11 4.29 11 8.58 11 13 C7.37 13 3.74 13 0 13 C0 8.71 0 4.42 0 0 Z " fill="#0B0B0B" transform="translate(222,97)"/>
<path d="M0 0 C0.33 0 0.66 0 1 0 C1 23.43 1 46.86 1 71 C-4.28 71 -9.56 71 -15 71 C-15 63.41 -15 55.82 -15 48 C-14.67 48 -14.34 48 -14 48 C-13.95101563 49.13179687 -13.90203125 50.26359375 -13.8515625 51.4296875 C-13.77653486 52.91148339 -13.70098703 54.393253 -13.625 55.875 C-13.5940625 56.62136719 -13.563125 57.36773437 -13.53125 58.13671875 C-13.44356169 62.53473188 -13.44356169 62.53473188 -11 66 C-11.33 66.99 -11.66 67.98 -12 69 C-8.37 69.33 -4.74 69.66 -1 70 C-0.67 51.85 -0.34 33.7 0 15 C-0.99 14.67 -1.98 14.34 -3 14 C-2.01 13.67 -1.02 13.34 0 13 C0 8.71 0 4.42 0 0 Z " fill="#CAB6A0" transform="translate(275,98)"/>
<path d="M0 0 C0.33 0 0.66 0 1 0 C1 4.29 1 8.58 1 13 C9.25 13 17.5 13 26 13 C26 8.71 26 4.42 26 0 C26.33 0 26.66 0 27 0 C27 4.29 27 8.58 27 13 C34.92 13 42.84 13 51 13 C51 13.33 51 13.66 51 14 C43.08 14 35.16 14 27 14 C27 22.58 27 31.16 27 40 C26.67 40 26.34 40 26 40 C26 31.42 26 22.84 26 14 C17.42 14 8.84 14 0 14 C0 9.38 0 4.76 0 0 Z " fill="#828282" transform="translate(66,83)"/>
<path d="M0 0 C0.33 0 0.66 0 1 0 C1 4.29 1 8.58 1 13 C13.21 13 25.42 13 38 13 C38 13.33 38 13.66 38 14 C34.04 14 30.08 14 26 14 C26 18.29 26 22.58 26 27 C25.67 27 25.34 27 25 27 C25 22.71 25 18.42 25 14 C21.37 14 17.74 14 14 14 C14 18.29 14 22.58 14 27 C13.67 27 13.34 27 13 27 C13 22.71 13 18.42 13 14 C9.04 14 5.08 14 1 14 C1 18.29 1 22.58 1 27 C0.67 27 0.34 27 0 27 C0 22.71 0 18.42 0 14 C-4.29 14 -8.58 14 -13 14 C-13 13.67 -13 13.34 -13 13 C-8.71 13 -4.42 13 0 13 C0 8.71 0 4.42 0 0 Z " fill="#666666" transform="translate(208,83)"/>
<path d="M0 0 C0.33 0 0.66 0 1 0 C1.33 2.64 1.66 5.28 2 8 C14.87 8 27.74 8 41 8 C41 7.34 41 6.68 41 6 C41.66 6 42.32 6 43 6 C43 4.02 43 2.04 43 0 C43.33 0 43.66 0 44 0 C44 2.97 44 5.94 44 9 C29.48 9 14.96 9 0 9 C0 6.03 0 3.06 0 0 Z " fill="#181109" transform="translate(98,226)"/>
<path d="M0 0 C3.96 0 7.92 0 12 0 C12 0.33 12 0.66 12 1 C10.54263913 1.19491452 9.08405407 1.38069358 7.625 1.5625 C6.81289062 1.66691406 6.00078125 1.77132812 5.1640625 1.87890625 C3 2 3 2 1 1 C1.12568359 2.49853516 1.12568359 2.49853516 1.25390625 4.02734375 C1.35574219 5.31769531 1.45757812 6.60804688 1.5625 7.9375 C1.66691406 9.22527344 1.77132812 10.51304687 1.87890625 11.83984375 C1.91886719 12.88269531 1.95882812 13.92554688 2 15 C-0.33175193 17.33175193 -5.9388208 16.52671083 -9.09375 16.71875 C-11.89050132 16.6785989 -11.89050132 16.6785989 -13 18 C-13.23192865 19.51469448 -13.41215238 21.03754562 -13.5625 22.5625 C-13.64628906 23.38878906 -13.73007813 24.21507812 -13.81640625 25.06640625 C-13.87699219 25.70449219 -13.93757812 26.34257812 -14 27 C-14.33 27 -14.66 27 -15 27 C-15 23.04 -15 19.08 -15 15 C-10.05 15 -5.1 15 0 15 C0 10.05 0 5.1 0 0 Z " fill="#F2E8DA" transform="translate(183,175)"/>
<path d="M0 0 C4.95 0 9.9 0 15 0 C15 4.95 15 9.9 15 15 C14.67 15 14.34 15 14 15 C13.67 10.71 13.34 6.42 13 2 C9.37 2 5.74 2 2 2 C2 2.66 2 3.32 2 4 C1.34 3.67 0.68 3.34 0 3 C0 2.01 0 1.02 0 0 Z " fill="#342E27" transform="translate(168,205)"/>
<path d="M0 0 C0.33 0 0.66 0 1 0 C1 5.28 1 10.56 1 16 C-2.96 16 -6.92 16 -11 16 C-8 14 -8 14 -4.875 13 C-1.87488938 12.3313327 -1.87488938 12.3313327 -1 10 C-0.77377919 8.29636178 -0.59111527 6.58671299 -0.4375 4.875 C-0.35371094 3.96492188 -0.26992188 3.05484375 -0.18359375 2.1171875 C-0.12300781 1.41851562 -0.06242187 0.71984375 0 0 Z " fill="#16120A" transform="translate(259,297)"/>
<path d="M0 0 C0.33 0 0.66 0 1 0 C1 4.29 1 8.58 1 13 C1.66 13.33 2.32 13.66 3 14 C2.34 14 1.68 14 1 14 C1 18.29 1 22.58 1 27 C0.67 27 0.34 27 0 27 C0 22.71 0 18.42 0 14 C-4.29 14 -8.58 14 -13 14 C-13 13.67 -13 13.34 -13 13 C-8.71 13 -4.42 13 0 13 C0 8.71 0 4.42 0 0 Z " fill="#797979" transform="translate(208,83)"/>
<path d="M0 0 C2.31 0 4.62 0 7 0 C7 3.96 7 7.92 7 12 C6.34 10.68 5.68 9.36 5 8 C5.33 7.01 5.66 6.02 6 5 C3.525 6.485 3.525 6.485 1 8 C1.020625 7.030625 1.04125 6.06125 1.0625 5.0625 C1.35618499 2.12534105 1.35618499 2.12534105 0 1 C0 0.67 0 0.34 0 0 Z " fill="#EFE3D0" transform="translate(51,98)"/>
<path d="M0 0 C0.33 0 0.66 0 1 0 C1 4.95 1 9.9 1 15 C-0.32 14.67 -1.64 14.34 -3 14 C-2.67 10.7 -2.34 7.4 -2 4 C-1.34 4 -0.68 4 0 4 C0 2.68 0 1.36 0 0 Z " fill="#98826C" transform="translate(168,220)"/>
<path d="M0 0 C0.66 0.33 1.32 0.66 2 1 C2 6.28 2 11.56 2 17 C0.68 16.67 -0.64 16.34 -2 16 C-2 15.34 -2 14.68 -2 14 C-1.34 14 -0.68 14 0 14 C-0.165 13.34 -0.33 12.68 -0.5 12 C-1.12605686 8.24365885 -1.12696208 4.80886246 -1 1 C-0.67 0.67 -0.34 0.34 0 0 Z " fill="#2F2B25" transform="translate(181,173)"/>
<path d="M0 0 C0.99 0.33 1.98 0.66 3 1 C2.67 5.95 2.34 10.9 2 16 C1.34 15.67 0.68 15.34 0 15 C-0.44921875 12.12890625 -0.44921875 12.12890625 -0.6875 8.5625 C-0.77386719 7.38816406 -0.86023438 6.21382812 -0.94921875 5.00390625 C-1 2 -1 2 0 0 Z " fill="#D2C8BA" transform="translate(96,219)"/>
<path d="M0 0 C2 1 2 1 2.75 3.0625 C3.09214294 7.08267958 2.11562824 10.12811376 1 14 C0.67 14 0.34 14 0 14 C0 9.38 0 4.76 0 0 Z M3 1 C3.99 1 4.98 1 6 1 C5.67 2.32 5.34 3.64 5 5 C4.34 5 3.68 5 3 5 C3 3.68 3 2.36 3 1 Z " fill="#35332C" transform="translate(260,252)"/>
<path d="M0 0 C0.99 0.495 0.99 0.495 2 1 C2.4140625 3.72265625 2.4140625 3.72265625 2.625 7.0625 C2.69976562 8.16722656 2.77453125 9.27195313 2.8515625 10.41015625 C2.90054688 11.26480469 2.94953125 12.11945313 3 13 C2.01 13.66 1.02 14.32 0 15 C0 10.05 0 5.1 0 0 Z " fill="#947E69" transform="translate(142,220)"/>
<path d="M0 0 C0.33 0 0.66 0 1 0 C1 4.95 1 9.9 1 15 C0.01 15 -0.98 15 -2 15 C-1.67 14.01 -1.34 13.02 -1 12 C-0.77674186 9.94106379 -0.59294241 7.87766347 -0.4375 5.8125 C-0.35371094 4.72582031 -0.26992187 3.63914063 -0.18359375 2.51953125 C-0.12300781 1.68808594 -0.06242188 0.85664063 0 0 Z " fill="#28241C" transform="translate(167,190)"/>
<path d="M0 0 C0.33 0 0.66 0 1 0 C1 2.97 1 5.94 1 9 C-0.32 8.01 -1.64 7.02 -3 6 C-2 3 -2 3 0 0 Z " fill="#EEE2D1" transform="translate(143,366)"/>
</svg>
